<svg xmlns="http://www.w3.org/2000/svg" viewBox="0 0 273.05 290.7"><defs><style>.cls-1{fill:#27367a;}.cls-2{fill:#75c8d5;}.cls-3{fill:#fafafa;}.cls-4{fill:#77c8d6;}.cls-5{fill:#f8f8f9;}.cls-6{fill:#fdfdfd;}.cls-7{fill:#fefeff;}.cls-8{fill:#fff;}.cls-9{fill:#2c3674;}.cls-10{fill:#e185b6;}.cls-11{fill:#e38dbb;}.cls-12{fill:#e38bba;}.cls-13{fill:#e491bd;}.cls-14{fill:#e28ab9;}.cls-15{fill:#e492be;}.cls-16{fill:#83ccd8;}.cls-17{fill:#e38ebb;}.cls-18{fill:#eaa0c7;}.cls-19{fill:#eaa2c8;}.cls-20{fill:#e698c1;}.cls-21{fill:#eaa1c7;}.cls-22{fill:#eba5ca;}.cls-23{fill:#eba5c9;}</style></defs><title>Logo Material Agora Azul</title><g id="Camada_2" data-name="Camada 2"><g id="Camada_1-2" data-name="Camada 1"><path class="cls-1" d="M0,145.06Q0,113,0,81c0-12.79,5.77-22.1,17.17-27.52q53.65-25.56,107.5-50.7a26.76,26.76,0,0,1,23.55,0q53.94,25.4,107.75,51c11.34,5.41,17,14.77,17,27.27q.12,64.47,0,129c0,12.27-5.46,21.63-16.72,27q-53.1,25.41-106.31,50.62a30,30,0,0,1-26.73-.12Q70.85,262.69,18.51,237.84C6,231.93,0,222.19,0,208.41c.07-21.12,0-42.23,0-63.35Z"/><path class="cls-2" d="M228.74,145.43c-3.06-10-8.25-18.42-17.46-23.89a36.32,36.32,0,0,0-14.67-5.29c-4.86-.53-5-.34-5.3,4.46a18.63,18.63,0,0,1-.35,2c-1.72-1.07-1.17-2.57-1.1-3.75.13-2.4-.93-3-3.14-2.86a32,32,0,0,0-17.85,7c-2.71,2.12-4,1.74-5.48-1.18-2.83-5.44-3-5.39,2.05-8.64a45.55,45.55,0,0,1,19.17-7c1.39-.18,3.27,0,3.92-1.61s-.79-2.69-1.78-3.81c-2.32-2.61-2.28-6.24.05-8.36a5.85,5.85,0,0,1,8.11.14,6,6,0,0,1-.08,8.38c-1,1-2.27,1.81-1.89,3.4.48,2,2.49,1.57,3.75,1.73a51.14,51.14,0,0,1,16.38,5c3.47,1.73,4.57.84,4.19-3a6.18,6.18,0,0,1,5.24-6.94,5.95,5.95,0,0,1,1.18,11.83c-1.36.23-3,0-3.44,1.64-.37,1.32,1.11,1.8,1.92,2.47,24.34,20.1,22.48,59-3.68,76.58-23.84,16.06-55.22,8.71-69.6-16.32a12.52,12.52,0,0,1-1.2-2.73c-.58-2.09-3.4-4.48-1.7-6,2-1.84,5.48-.57,8.32-.58,1.32,0,1.67,1.33,2.17,2.33,6.08,12.32,15.94,19.35,29.47,21.73,3.86.68,4.8-.35,4.47-3.8a2.43,2.43,0,0,1,.66-2.23c1.51.86,1,2.37.93,3.55,0,2.35.94,3.07,3.24,2.74,18.4-2.61,31.47-15.68,34.08-34.18.15-1.11.41-2.25-.55-3.17C230.36,151.88,229.52,148.66,228.74,145.43Z"/><path class="cls-3" d="M53.66,140.55c2.08-3.32,5.17-4.19,8.7-3.08,3.91,1.24,4.57,4.59,4.6,8.13,0,3.75-.21,7.51.05,11.23.23,3.23-1.8,3.11-3.8,3s-4.52.92-4.26-2.82a87.75,87.75,0,0,0-.06-9.73c-.06-1.51-.4-3.23-2.37-3.22-1.76,0-2.09,1.67-2.16,3-.16,3.24-.28,6.49-.14,9.72.14,2.91-1.38,3.31-3.68,3-1.95-.29-4.79,1-4.49-3,.24-3.22,0-6.48,0-9.73,0-1.45-.37-2.95-2.1-3-1.92-.05-2.44,1.48-2.46,3.1a56.08,56.08,0,0,0,0,8.6c.55,4-1.67,4.08-4.58,4.22-3.53.17-3.66-1.73-3.57-4.42.15-4.36,0-8.73,0-13.1,0-5,3-6.86,7.53-4.56.91.46,1.3.93,2.49.36C47.77,136.13,49.89,136.7,53.66,140.55Z"/><path class="cls-4" d="M186.08,143.12c0-3.62,0-7.23,0-10.85,0-3.14,1.46-5.26,4.78-5.57,2.89-.28,5.34,2,5.47,5.36.19,4.73.2,9.48,0,14.21-.11,2.71.63,3.94,3.54,3.65a40.8,40.8,0,0,1,6.35,0c3.55.21,5.41,2.19,5.27,5.42a5.06,5.06,0,0,1-5.61,4.78c-4.74-.54-9.46-.14-14.18-.36-4-.19-5.57-1.76-5.64-5.82C186,150.35,186.08,146.73,186.08,143.12Z"/><path class="cls-5" d="M90.07,151.25v3.37c0,5.12-2.18,6.9-7,4.88-1.73-.72-2.6-.26-3.89.17-3.16,1.07-6.17.85-8.69-1.55-2.07-2-2.13-4.54-1.18-6.93,1.24-3.14,4.06-4.13,7.24-4.23,1,0,2,0,3,0,.8-.07,1.86.42,2.25-.71a1.71,1.71,0,0,0-.37-1.34c-.68-.82-1.81-1.39-2.65-.76-2.45,1.83-5,.88-7.53.63-2.16-.22-2.53-1-1.51-2.89,2-3.71,7.53-5.72,12.85-4.52s7.49,3.9,7.53,9.06C90.08,148,90.07,149.63,90.07,151.25Z"/><path class="cls-6" d="M182.17,150.66v4.11c0,5.27-.8,6.1-6.06,4.85a8.68,8.68,0,0,0-5.13.21c-3,1-6,.56-8.26-1.87a6,6,0,0,1-1.05-6.61c1.26-3.23,4-4.2,7.15-4.39,1-.05,2,0,3-.05.79-.07,1.82.45,2.31-.62a1.45,1.45,0,0,0-.52-1.65,2,2,0,0,0-2.71-.4c-2.21,1.7-4.49.69-6.81.55-3.32-.2-2.59-1.85-1.49-3.65,1.95-3.21,7.8-4.94,12.49-3.77,5.56,1.37,7.09,3.35,7.09,9.17Z"/><path class="cls-7" d="M127.54,152.85c2.87,4.43,2.28,5.87-3,7.18-6.39,1.59-13.33-2.12-15-8-1.77-6.46,1.53-12.86,7.61-14.51,3.83-1,7.62-.65,10.32,2.43s4.46,6.51,3,10.77a41.86,41.86,0,0,1-9.63.94C123.19,152.62,125.74,150.46,127.54,152.85Z"/><path class="cls-8" d="M95.25,149.56c-.66-1.9,1.63-5-2.55-6.28-1.07-.33-1.49-4.61.36-5.5,2.07-1,2.38-2,2.17-3.79-.32-2.63,1.28-2.89,3.21-2.66s4.64-1.1,4.61,2.52c0,2-.2,3.79,2.8,3.56,1.68-.13,1.73,1.44,1.67,2.74-.08,1.57.3,3.58-2,3.71-1.73.11-2.79.57-2.27,2.36.64,2.19-1.84,5.41,2.11,6.54,3,.85,1.42,3.28,1.59,5,.2,1.94-1.38,1.94-2.82,2C96.7,160.19,95.25,158.58,95.25,149.56Z"/><path class="cls-6" d="M137.73,137.4c2.69.09,5.32.9,8.1-.16,1.71-.65,3.17.18,2.6,2.63-.63,2.73,0,6.26-4.68,5.82-1.49-.14-2,1.36-2,2.67-.11,2.11-.14,4.23-.14,6.35,0,4.89-2.28,6.49-6.92,5-1.32-.43-1.26-1.35-1.26-2.33,0-5.74-.09-11.47,0-17.2C133.4,137.45,133.55,137.44,137.73,137.4Z"/><path class="cls-8" d="M158.94,148.82c0,2.37-.16,4.75,0,7.1.24,2.78-.49,3.79-3.59,4-3.9.22-5-.95-4.69-4.73.35-4.84.19-9.72.08-14.58-.06-2.77,1.48-3.62,3.74-3.28,1.92.28,4.75-.37,4.46,3.3C158.76,143.31,158.94,146.07,158.94,148.82Z"/><path class="cls-9" d="M159.42,131.94c0,3-1.79,4.54-5,4.56s-4.16-2.27-4.2-4.58c0-2.54,1.55-4.36,4.47-4.42S159.41,129,159.42,131.94Z"/><path class="cls-10" d="M173.4,173.28c-.36,1.31-1.06,2.24-2.58,2.17-1.73-.09-.92-2.08-1.83-2.68-1.62-.16-2.44,3.4-4.33.81-1-1.42.72-6,2.6-6.78s3.76.16,4.92,1.47c.9,1-1.63,2.91.35,4.23A1,1,0,0,1,173.4,173.28Z"/><path class="cls-11" d="M182.12,170.23c3.29.36,4.52-2.61,6.59-4.16.84-.62,1.18-1.9,2.54-1.83a1.45,1.45,0,0,1,.4,1.44c-.75,1.15-1,2.56-1.81,3.68a16.77,16.77,0,0,0-1.23,1.77c.78-.31.71-1.15,1.14-1.66,1-.9,1-2.6,2.4-3.23,1.62.16.49,1.88,1.39,2.44l1.46,0a.47.47,0,0,1,.17.48c0,.17-.1.25-.16.25a15.47,15.47,0,0,0-4.63,3.65c-1.59,1.82-3.32,2.4-4.74-.05-1-1.8-2.12-1.17-3.36-.49C181.13,171.81,180.49,171.1,182.12,170.23Z"/><path class="cls-10" d="M182.12,170.23c-1,.83,0,1.51.16,2.26-2.19,2.23-2.39,5.36-3.65,8-.76,1.62-1.2,3.74-3.83,3.12-.35-.68,0-1.24.28-1.81a10.52,10.52,0,0,0,1.32-3.47,5.5,5.5,0,0,0,.27-2.67,16,16,0,0,0,.67-3.7c.73-1.61,1.43-3.24,3.35-3.8a2.07,2.07,0,0,1,1.49.52Z"/><path class="cls-12" d="M177.76,172.45a2.16,2.16,0,0,1-.69,3q-.42.63-.84,0l-2.83-2.17-.87-.78c1.64-1.8,3.27-3.6,4.92-5.39a3.57,3.57,0,0,1,3.54-1.45c1.9.42.12,2.29,1.19,3l-1.53,0C178.43,169,178.05,170.67,177.76,172.45Z"/><path class="cls-13" d="M207.68,174.11c-.59-.28-.68-2.06-1.78-.76-2,2.4-3,.47-4.1-.88-.66.32-.92-.09-1.13-.61a1,1,0,0,1,.39-.88c1.49-.81,2.12-2.39,3.17-3.59,1.83-2.11,3.71-.23,5.5,0,1.42.17,1.06,1.35.38,2.26-1.2-.59-2,.7-3,.71-.31-.2-.38-.73-.56-.81-.57-.26-.31.37-.38.57-.44,1.15.62.94,1.17,1.21C208.45,172.13,208.63,173.05,207.68,174.11Z"/><path class="cls-14" d="M195,169.38c0-.24,0-.49,0-.73.75-1.37,1.35-3.67,2.72-.31.22.53,1.22.75,1.86,1.1.83,1.41,0,2.75-.14,4.12,0,.57.31,1.15,0,1.72-1,.57-1.67,2.17-3.09.93-1-.86-.7-2-.25-3.07C196.76,171.57,197.28,170.09,195,169.38Z"/><path class="cls-15" d="M215.92,169.28c.53-2.8,1.06-5.61,1.61-8.42.21-1,.55-2.1,1.91-1.66,1.1.35.87,1.27.55,2.17-1.12,3.17-2.19,6.36-3.28,9.54C215.26,171,215.69,170.07,215.92,169.28Z"/><path class="cls-16" d="M228.74,145.43c1.37,3.23,2.44,6.45,0,9.69-1.74,0-3.49,0-5.23,0-.65,0-1.31-.17-1.39-.94s.54-.95,1.18-1.12c1.95-.55,4.78,1.2,5.76-1.08.73-1.71-.18-4.12-.36-6.21C228.72,145.68,228.74,145.56,228.74,145.43Z"/><path class="cls-17" d="M207.68,174.11c.17-1.3,0-2.39-1.64-2.49-.26-.81-.26-1.46.86-1.47s1.42-4.82,3.21-.51c.33.93-1.08,2.3.73,2.85.68-.14,1.09,0,.75.8C210.34,173.81,209.92,178.26,207.68,174.11Z"/><path class="cls-18" d="M176.23,175.45h.84c0,1,.64,2-.08,3a5.17,5.17,0,0,0-1.45,3.84c-.25.43-.49.87-.74,1.31-2.47-1.3-1.39-3-.57-4.73C174.81,177.7,176.37,177.07,176.23,175.45Z"/><path class="cls-19" d="M193.54,168.68l-1.5-2.23a.91.91,0,0,1-.8-.91c0-.43,0-.87,0-1.3C194.26,164.56,193.35,166.9,193.54,168.68Z"/><path class="cls-20" d="M216.09,174.68c-.11.83-.41,1.47-1.37,1.44a.87.87,0,0,1-.87-1,1.47,1.47,0,0,1,1.45-1.42C216.06,173.61,216,174.26,216.09,174.68Z"/><path class="cls-21" d="M198.76,174l2.21-2.4.83.83c-.73,1-1.17,2.22-2.37,2.81Z"/><path class="cls-22" d="M211.59,173.29l-.75-.8a3.33,3.33,0,0,1,1.86-2.09C213,171.75,212.29,172.51,211.59,173.29Z"/><path class="cls-23" d="M215.92,169.28c.1.62.13,1.28.79,1.63-.17.61-.67,1.47-1.13,1C214.84,171.17,215.24,170.1,215.92,169.28Z"/></g></g></svg>