<svg xmlns="http://www.w3.org/2000/svg" viewBox="0 0 361.8 180.41"><defs><style>.cls-1{fill:#fff;}</style></defs><title>Ativo 1</title><g id="Camada_2" data-name="Camada 2"><g id="Camada_1-2" data-name="Camada 1"><path class="cls-1" d="M205.66,125.3c2.29,0,4.57,0,6.86,0a3,3,0,0,1,2.92,1.82c1.34,2.51,2.56,5.09,4.11,7.48a65.07,65.07,0,0,0,25.57,22.65c8.46,4.32,17.61,6.33,27.06,7.51,2.87.36,3.57-.3,3.56-3,0-1.94,0-3.88,0-5.82,0-1.11.4-1.77,1.78-1.74s1.2.92,1.21,1.72c0,2,0,4,0,6,0,2.53.61,3.21,3.42,2.86a102.71,102.71,0,0,0,13.59-2.25A70.87,70.87,0,0,0,322.24,149a61,61,0,0,0,17.14-22.16,62.92,62.92,0,0,0,5.18-18.46c0-.18,0-.35,0-.53.26-3.69-.15-4.07-4.11-4-2.47,0-5,0-7.42,0-1.1,0-2-.33-2-1.43s1.07-1.07,2-1.07c3.18,0,6.35,0,9.52,0,1.5,0,2.09-.54,2.05-1.86a54.21,54.21,0,0,0-2.16-13A58.27,58.27,0,0,0,334.27,69a64.4,64.4,0,0,0-14-14.66,62.63,62.63,0,0,0-14.07-8.18c-8.3-3.42-16.84-6.08-26.15-5.63-1.54.07-2.18.68-2.17,2,0,2.35,0,4.7,0,7,0,.84-.09,1.5-1.27,1.57s-1.44-.56-1.47-1.39c-.07-2.29-.11-4.58-.15-6.87,0-2-.44-2.37-2.54-2.4a52.78,52.78,0,0,0-16,2.61,72,72,0,0,0-22.08,11.1c-1.66,1.2-2.3,1.15-3.32-.52-2.25-3.65-4.38-7.35-6.83-10.89-.65-.93,0-1.44.66-1.9a103.26,103.26,0,0,1,12.26-7.54A89.76,89.76,0,0,1,255,26.78c5.1-1.31,10.3-2.46,15.65-2.38,1.76,0,2.31-.75,2.29-2,0-1.92-.14-3.78-2.16-5.13-3.83-2.57-5.47-6.32-4.06-10.38,1.63-4.69,5.6-7.66,11.75-6.65,4.27.7,7.26,3,8.08,7.14.78,3.87,0,7.71-4.24,10a5,5,0,0,0-1.95,5.51c.31.87,1,1.05,1.89,1.15A152.22,152.22,0,0,1,298.9,26.6a92.38,92.38,0,0,1,16.42,5.84c.74.33,1.5.62,2.24,1,3.31,1.52,4,1.34,6-1.52a2.66,2.66,0,0,0,0-2.7,8.41,8.41,0,0,1,2.87-10c6-4.7,14.23-2.82,16.67,4.2,2,5.68-1.86,12.22-9.24,12.26-1.79,0-3.56.14-5,1.3s-1.54,2.34.08,3.47a73.24,73.24,0,0,1,12.91,11.32,77.78,77.78,0,0,1,14.68,23.3,76.39,76.39,0,0,1,4.8,20.34,68.92,68.92,0,0,1-.53,19.3,75.34,75.34,0,0,1-16.13,35.15,82.33,82.33,0,0,1-23.55,19.56,84.52,84.52,0,0,1-23.33,8.93,67.87,67.87,0,0,1-14.17,2.06,123.89,123.89,0,0,1-20.82-1.17,84.85,84.85,0,0,1-42.15-18.79,85.15,85.15,0,0,1-8.62-8.09,67.58,67.58,0,0,1-10.78-15.62c-1.43-2.87-2.79-5.76-4-8.7-.88-2.11-.43-2.68,1.93-2.69,2.16,0,4.32,0,6.47,0Z"/><path class="cls-1" d="M36.93,108.68c-.08.59-.16,1.17-.25,1.75-.14.91-.68,1.26-1.71,1.23-3.36-.09-6.72-.16-10.08-.15-1.64,0-2.26-.66-2.25-2.14.05-5.82.05-11.64,0-17.46a14.83,14.83,0,0,0-.29-3C22,87.05,20.72,86.1,18.68,86a3.63,3.63,0,0,0-4,2.62,10.06,10.06,0,0,0-.4,3.31c0,5.83,0,11.65.07,17.47,0,1.36-.43,2.09-2,2.09-3.23,0-6.46.52-9.69,0-2.49-.41-2.64-.63-2.63-3C0,98.65,0,88.77,0,78.9,0,75.47.54,75,4.17,75.14c2.09.06,4.19,0,6.28,0,3.23-.08,3.93.45,4.34,3.37.48.14.62-.29.85-.49a13,13,0,0,1,19.29,1.69c.61.79,1,1.25,1.68.08,2.85-4.92,8.19-6,13.8-4.78,4.83,1.08,8,4.93,8.57,10.12.55,5,.09,10,.19,15,.06,3.11,0,6.23.1,9.34,0,1.32-.55,1.94-2,2.06a72.8,72.8,0,0,1-10.65,0c-1.37-.08-1.83-.76-1.82-2,0-5.94.09-11.88,0-17.82,0-1.63.09-3.42-1.7-4.53h0c-2.12-1.83-4.66-1.3-5.64,1A3.62,3.62,0,0,0,37.24,90C36.46,96.22,37.18,102.46,36.93,108.68Z"/><path class="cls-1" d="M268.78,84.42c0-6.35,0-12.7,0-19a7.38,7.38,0,0,1,5.7-7.11c4-1.1,7.58-.11,9.8,2.78A8,8,0,0,1,286,66c.09,7.82.15,15.63.3,23.45,0,1.28-.26,2.53-.14,3.84.18,1.94,1.32,2.34,3,2.35,5.08,0,10.16-.06,15.23,0,3.45.07,6.34,1.35,7.76,4.43,2.76,6-.2,11.39-7.34,11.67-8.8.35-17.64.1-26.46,0a12.17,12.17,0,0,1-5.32-1.09,7.21,7.21,0,0,1-4.2-6.83C268.75,97.36,268.78,90.89,268.78,84.42Z"/><path class="cls-1" d="M99.76,98c0,3.65-.12,7.3,0,10.94.08,1.7-.64,2.37-2.26,2.6a28.26,28.26,0,0,1-5.12.26c-1.71-.08-3.42-.19-5.13-.19-1,0-1.65-.17-1.72-1.17-.11-1.4-.68-1.33-1.75-.63-4.65,3-9.69,3.19-14.85,1.39a9.29,9.29,0,0,1-6.71-9.3A10.16,10.16,0,0,1,69,92.08a22.83,22.83,0,0,1,7.42-1.38c2.28-.07,4.57,0,6.85,0,.8,0,1.71.27,2.1-.73a2.3,2.3,0,0,0-.52-2.47,4.63,4.63,0,0,0-6.11-.92c-2.05,1.55-4.19,1.62-6.6,1.23-2.06-.33-4.16-.47-6.24-.65-2.88-.24-3.54-1.2-2.48-3.73A12.89,12.89,0,0,1,69.92,77c7.94-4,19.58-2.94,26,2.32a10.14,10.14,0,0,1,3.87,8.09c0,3.53,0,7.06,0,10.58Zm-18.07-.63a18.09,18.09,0,0,0-2.42.14,2.71,2.71,0,0,0-2.54,2.82c-.06,1.58.92,2.4,2.45,2.63a5.66,5.66,0,0,0,5.53-2,2.68,2.68,0,0,0,.64-3c-.54-1.18-1.63-.51-2.49-.62C82.61,97.34,82.36,97.35,81.69,97.32Z"/><path class="cls-1" d="M234.35,91.11l.94-.13a3.82,3.82,0,0,0,1.92-.27l3-.13,5.5.08c.74,0,1.64.25,2-.61a2.44,2.44,0,0,0-.44-2.66,4.75,4.75,0,0,0-6.4-.62l-.3.2-.28.21-.47.32a.89.89,0,0,0-.76.37h0l-3.8.06-.75-.08a4.18,4.18,0,0,0-2.29-.3l-.76-.07a4.56,4.56,0,0,0-2.29-.26L228,87.16l-2.25-.42-.43-.63c-.15-2.7,1.49-4.69,3.11-6.69a25.35,25.35,0,0,1,28-1.44c3.35,1.92,5.22,4.53,5.14,8.4-.16,7.75-.08,15.5,0,23.25,0,1.17-.37,1.66-1.59,1.87-3.67.61-7.33-.06-11,0-1.06,0-1-.89-1.13-1.55s-.37-1-1.11-.5c-4.12,3-8.82,3.18-13.72,2.39l-3.88-1.61-.78-.47a13.65,13.65,0,0,1-3.37-4.67c-.78-.57.28-1.46-.41-2,0-.59,0-1.18-.05-1.77l.07-1c1-4.45,3.73-7.44,8.39-8.87a.36.36,0,0,0,.35-.06A1.07,1.07,0,0,0,234.35,91.11Zm9.76,6.2a21.83,21.83,0,0,0-2.69.23,2.68,2.68,0,0,0-2.3,3c0,1.42,1,2,2.35,2.33A5.79,5.79,0,0,0,247,101a3,3,0,0,0,.7-3.13c-.5-1.07-1.69-.37-2.56-.54A9.7,9.7,0,0,0,244.11,97.31Z"/><path class="cls-1" d="M159.83,96.69h-9.9c-.62,0-1.36-.11-1.67.55s.24,1,.53,1.44a3.66,3.66,0,0,0,2.12,1.69c3.31.8,6.62,1.12,9.79-.55,2.61-1.37,3.36-1.19,5,1.07,1.09,1.51,2.26,3,3.36,4.48a1.81,1.81,0,0,1-.51,2.9c-10.86,7.63-27.27,4.64-32.9-6-5.5-10.39-1-24.39,12.9-27.29,8.93-1.86,17,1.77,20.89,9.47a30.57,30.57,0,0,1,2.85,9.64c.26,1.81-.55,2.62-2.55,2.63-3.3,0-6.6,0-9.9,0ZM152.58,90h2.84c.56,0,1.14.12,1.48-.5a1.44,1.44,0,0,0-.16-1.66,4.87,4.87,0,0,0-4.07-1.92,4.51,4.51,0,0,0-4,2c-.8,1.2-.24,2.06,1.23,2.06Z"/><path class="cls-1" d="M108.92,95.12c0-2.35,0-4.71,0-7.06,0-2-.52-2.36-2.63-2.3-2.45.06-2.89-.38-2.86-2.62,0-1.64-.08-3.28-.11-4.93,0-2.44.94-3.4,3.56-3.11,1.61.17,2.05-.39,2-1.72,0-1.94,0-3.88,0-5.82,0-1.5.71-2.31,2.4-2.28,2.73,0,5.46,0,8.18.09,2.29.1,3,.88,3.08,3,0,1.41-.08,2.82,0,4.23.08,2,.9,2.64,3,2.63,4.89,0,4.89,0,4.86,4.42v.18c0,5.9-.1,5.71-5.78,5.93-1.43.06-2,.76-2,2,0,3,0,6,.06,9,.07,2.58,1.13,3.45,3.9,3.41,2.23,0,2.84.51,2.84,2.56s0,4,0,6c0,2.19-.61,2.75-2.93,2.77a51.4,51.4,0,0,1-9.11-.27c-6.13-1.07-8.31-3.45-8.39-9.28,0-2.29,0-4.58,0-6.87Z"/><path class="cls-1" d="M254.34,134.45a6.79,6.79,0,0,1-2.46,1.91c-1.35.54-3.1-.57-3.63-2.26-.16-.49-.1-1.19-.76-1.3s-.82.63-1.15,1c-.82,1-1.35,2.1-2.5,2.85a3,3,0,0,1-3,.39,2.77,2.77,0,0,1-1.77-2.52c0-.9.56-2.26-.42-2.61s-1.52,1.1-2.29,1.71c-1.25,1-2.34,2.48-4.21,1.68s-1.53-2.44-1.44-3.9c.24-3.75,1.66-6.94,5.21-9.08a1.85,1.85,0,0,1,2.06-.11,14.94,14.94,0,0,0,5.83,2c1.34.06,1.1,1,.9,1.69-.41,1.35-1.05,2.65-1.49,4-.37,1.11-.92,2.72.2,3.23s1.87-1.08,2.41-2c2.31-3.7,6-6.19,9.16-9.11a4.88,4.88,0,0,1,4.58-1.14c.91.22,1.61.71,1.62,1.71s-.7,1.1-1.44,1.37q-7.32,2.73-8.1,9.74c1.24-.13,1.8-1,2.4-1.81,1.27-1.69,2.47-3.42,3.73-5.11a9,9,0,0,1,1.37-1.46,2.07,2.07,0,0,1,2.47,0c.89.5.82,1.24.49,2-.11.27-.27.53-.4.8-.26.56-.91,1.17-.15,1.73s1.21-.27,1.72-.62c2.23-1.54,4.39-3.18,6.69-4.62a12.77,12.77,0,0,0,4.24-3.92c.82-1.3,1.95-2.36,3.86-1.92a3.88,3.88,0,0,1,3.3,3.63,4.5,4.5,0,0,1-.26,2.26,1.21,1.21,0,0,0,.78,1.73,1.55,1.55,0,0,0,2.11-.63c.45-.7.8-1.46,1.2-2.2a2.14,2.14,0,0,1,2.14-1.17c1.35,0,1.88.44,1.28,1.75-.79,1.71-.61,1.91,1.44,2.21,1.89.27,2.44,1,1.8,2.68-.84,2.18-2.14,4.22-2.39,6.75a5.51,5.51,0,0,0,3-2.46c2.45-3.66,5.77-6.68,8.72-10,1.49-1.67,2.76-1.79,4.61-.5a5,5,0,0,0,3.49,1c2.05-.16,2.64.55,2.1,2.43-.4,1.42-1,2.79-1.41,4.2a6.44,6.44,0,0,0-.06,1.76c0,.42.06.88.56,1s.78-.23,1.05-.58a32.55,32.55,0,0,1,4.56-5.15,12.29,12.29,0,0,1-2.76,6.25,11,11,0,0,1-2.74,2.91c-1.81,1.21-3.64.66-4.36-1.28a12.83,12.83,0,0,1-.4-4.62l-2.26,2.39a15.77,15.77,0,0,1-1.11,1.2c-2.13,1.89-3.76,1.61-4.94-.86-.27-.56-.47-1.16-.72-1.79-1.41.74-1.92,2.09-2.86,3.09a24.78,24.78,0,0,1-4,3.55,2.88,2.88,0,0,1-3.35.24,2.79,2.79,0,0,1-1.32-3.07,23.17,23.17,0,0,1,1.72-4.83c.24-.64,1.38-1.33.46-2a4.18,4.18,0,0,0-3.44-1.1,11.93,11.93,0,0,0-6.9,4.36,12.34,12.34,0,0,1-3.13,2.8c-2.26,1.28-4,.92-5.8-1.12a5.63,5.63,0,0,1-.71-1c-1.68-2.95-1.69-3-4.59-.95s-4.69,4.21-5.31,7.57a30.52,30.52,0,0,1-3.65,8.86c-1.28,2.34-3.18,3.24-5.13,2.49a4.1,4.1,0,0,1-2.3-5.37c.73-2.18,2.41-3.83,4-5.53a29.47,29.47,0,0,1,4.61-3.92c.67-.38.71-1.08.95-1.67s1-1.16.31-1.55c-.94-.54-.72.66-1.14,1A6.77,6.77,0,0,0,254.34,134.45ZM270,132.36c0,1,.51,1.48,1.68,1.13a8.25,8.25,0,0,0,2.65-1.66c2.5-2,2.36-2.79-.39-4.4-1.1-.65-1.56-.45-2.18.47A13.38,13.38,0,0,0,270,132.36ZM254,139.13c-3.06,2.26-5.2,4.46-6,7.6a1.35,1.35,0,0,0,.68,1.67c.72.38,1.25-.13,1.59-.59A18.23,18.23,0,0,0,254,139.13ZM301.27,133c1.47-1.81,2.73-3.34,4-4.9a3.17,3.17,0,0,0,.7-3.13c-.14-.42-.19-1-.84-1a1.37,1.37,0,0,0-1.42.7C302.26,127.12,300.7,129.62,301.27,133Zm-67.11-.43a16.12,16.12,0,0,0,3.44-3.31,6.05,6.05,0,0,0,1.44-4.07,1.22,1.22,0,0,0-.71-1.15,1.1,1.1,0,0,0-1.29.52A13,13,0,0,0,234.16,132.55ZM279,122.26c-.08-.69-.17-1.24-.76-1.49a1.32,1.32,0,0,0-1.52.43,8.24,8.24,0,0,0-2.19,4.77,1.49,1.49,0,0,0,1.36,1.66,1.38,1.38,0,0,0,1.7-.81C278.17,125.27,278.6,123.69,279,122.26Z"/><path class="cls-1" d="M190.45,77.68c1.9-1.28,3.47-2.49,5.51-2.91a10.17,10.17,0,0,1,2.64-.27c3.68.21,4.51,1.28,3.77,4.61-.52,2.29-.89,4.62-1.2,7-.21,1.57-1,2.3-2.72,2.2-6.49-.39-8.21,1.47-8.2,7.64,0,4.69.28,9.39-.16,14.09-.12,1.34-.74,1.68-2,1.65-3.23-.08-6.47-.14-9.7-.11-1.68,0-2.42-.54-2.41-2.15,0-10.4,0-20.8,0-31.19,0-2.57.67-3.1,3.38-3.07s5.32.06,8,0C189.15,75,190.37,75.56,190.45,77.68Z"/><path class="cls-1" d="M220.85,107.64l-.09,3c-.87,1.17-2.23.66-3.38.88h-.77l-9.5-.09a.76.76,0,0,1,0-.3v-8.77h-.39v8c-.2-8.49-.36-17-.23-25.47,0-2.64.23-5.27.26-7.91,0-1,.4-1.42,1.46-1.65,3.78-.82,7.57-.16,11.35-.14,1.35,0,1.1,1.2,1.31,2Z"/><path class="cls-1" d="M213.51,73.81c-4.77,0-8.07-3-8-7.36s3.31-7.45,8.2-7.41,8,2.89,8,7.37S218.5,73.81,213.51,73.81Z"/><path class="cls-1" d="M319.8,130.68c.48-2,1-4.25,1.54-6.48.9-4,1.75-8,2.66-12,.4-1.73,1.53-2.46,3.06-2,1.71.53,1.63,1.65,1.14,3-2.2,5.92-4.34,11.86-6.53,17.78-.19.51-.29,1.29-1.13,1.21S319.86,131.41,319.8,130.68Z"/><path class="cls-1" d="M321.53,135.49a2.92,2.92,0,0,1-3,2.87c-1.23,0-1.71-.61-1.71-1.64,0-1.36,1.78-2.88,3.32-2.89C321.45,133.83,321.38,134.76,321.53,135.49Z"/></g></g></svg>